HIERARCHY
ROOT SpineBase
{
  OFFSET 0.000000 0.000000 0.000000
  CHANNELS 6 Xposition Yposition Zposition Zrotation Xrotation Yrotation
  JOINT SpineMid
  {
    OFFSET -0.000000 32.512797 0.000000
    CHANNELS 3 Zrotation Xrotation Yrotation
    JOINT SpineShoulder
    {
      OFFSET -0.040233 23.993792 -0.805577
      CHANNELS 3 Zrotation Xrotation Yrotation
      JOINT Neck
      {
        OFFSET -0.061902 7.988141 -0.611377
        CHANNELS 3 Zrotation Xrotation Yrotation
        JOINT Head
        {
          OFFSET -2.558993 9.408675 4.070287
          CHANNELS 3 Zrotation Xrotation Yrotation
          End Site
          {
            OFFSET 0 0 0
          }
        }
      }
      JOINT ShoulderLeft
      {
        OFFSET -15.297335 -5.034007 2.623515
        CHANNELS 3 Zrotation Xrotation Yrotation
        JOINT ElbowLeft
        {
          OFFSET -2.713790 -21.215059 6.912039
          CHANNELS 3 Zrotation Xrotation Yrotation
          JOINT WristLeft
          {
            OFFSET 24.796144 0.481942 -16.129290
            CHANNELS 3 Zrotation Xrotation Yrotation
            JOINT HandLeft
            {
              OFFSET 5.638709 1.346464 -5.172508
              CHANNELS 3 Zrotation Xrotation Yrotation
              JOINT HandTipLeft
              {
                OFFSET 5.291132 0.123450 2.401389
                CHANNELS 3 Zrotation Xrotation Yrotation
                End Site
                {
                  OFFSET 0 0 0
                }
              }
              JOINT ThumbLeft
              {
                OFFSET -4.073193 4.943141 -4.948714
                CHANNELS 3 Zrotation Xrotation Yrotation
                End Site
                {
                  OFFSET 0 0 0
                }
              }
            }
          }
        }
      }
      JOINT ShoulderRight
      {
        OFFSET 6.543622 -4.486649 -8.792180
        CHANNELS 3 Zrotation Xrotation Yrotation
        JOINT ElbowRight
        {
          OFFSET 2.808724 -21.176773 -4.787515
          CHANNELS 3 Zrotation Xrotation Yrotation
          JOINT WristRight
          {
            OFFSET 18.618197 16.000680 14.343884
            CHANNELS 3 Zrotation Xrotation Yrotation
            JOINT HandRight
            {
              OFFSET 2.268496 7.126340 2.898173
              CHANNELS 3 Zrotation Xrotation Yrotation
              JOINT HandTipRight
              {
                OFFSET 2.418642 7.130215 -1.427080
                CHANNELS 3 Zrotation Xrotation Yrotation
                End Site
                {
                  OFFSET 0 0 0
                }
              }
              JOINT ThumbRight
              {
                OFFSET 5.092873 -1.274911 -4.882902
                CHANNELS 3 Zrotation Xrotation Yrotation
                End Site
                {
                  OFFSET 0 0 0
                }
              }
            }
          }
        }
      }
    }
  }
  JOINT HipLeft
  {
    OFFSET -5.381250 0.681022 -0.902787
    CHANNELS 3 Zrotation Xrotation Yrotation
    JOINT KneeLeft
    {
      OFFSET -2.629243 -32.340005 6.615123
      CHANNELS 3 Zrotation Xrotation Yrotation
      JOINT AnkleLeft
      {
        OFFSET 1.415365 -30.359056 -4.702218
        CHANNELS 3 Zrotation Xrotation Yrotation
        JOINT FootLeft
        {
          OFFSET 9.891553 -1.718267 -9.732164
          CHANNELS 3 Zrotation Xrotation Yrotation
          End Site
          {
            OFFSET 0 0 0
          }
        }
      }
    }
  }
  JOINT HipRight
  {
    OFFSET 5.619135 1.811657 -6.203166
    CHANNELS 3 Zrotation Xrotation Yrotation
    JOINT KneeRight
    {
      OFFSET -3.599243 -29.513683 0.975615
      CHANNELS 3 Zrotation Xrotation Yrotation
      JOINT AnkleRight
      {
        OFFSET 0.022069 -31.822242 -1.394114
        CHANNELS 3 Zrotation Xrotation Yrotation
        JOINT FootRight
        {
          OFFSET -4.036476 -2.674868 -12.081164
          CHANNELS 3 Zrotation Xrotation Yrotation
          End Site
          {
            OFFSET 0 0 0
          }
        }
      }
    }
  }
}
MOTION
Frames: 5
Frame Time: 0.033333
-8.769557 64.602532 301.768065 0.000000 0.000000 25.726431 -0.000000 0.000000 -25.726431 -0.000000 0.000000 0.000000 -0.000000 0.000000 0.000000 0.000000 0.000000 0.000000 -0.000000 0.000000 0.000000 -0.000000 0.000000 0.000000 -0.000000 0.000000 0.000000 -0.000000 0.000000 0.000000 0.000000 0.000000 0.000000 0.000000 0.000000 0.000000 -0.000000 0.000000 0.000000 -0.000000 0.000000 0.000000 -0.000000 0.000000 0.000000 -0.000000 0.000000 0.000000 0.000000 0.000000 0.000000 0.000000 0.000000 0.000000 -0.000000 0.000000 -25.726431 -0.000000 0.000000 0.000000 -0.000000 0.000000 0.000000 0.000000 0.000000 0.000000 -0.000000 0.000000 -25.726431 -0.000000 0.000000 0.000000 -0.000000 0.000000 0.000000 0.000000 0.000000 0.000000
-8.784077 64.711383 301.827235 -0.075131 -0.041484 26.565643 0.085751 0.003504 -26.565673 -0.000000 0.000000 0.000000 -0.000000 0.000000 0.000000 0.000000 0.000000 0.000000 -0.445199 -1.289315 0.014812 0.445645 1.289161 -0.024836 -0.758637 -1.276783 2.264270 0.808676 1.245695 -2.281515 0.000000 0.000000 0.000000 0.000000 0.000000 0.000000 -0.000000 0.000000 0.000000 0.952840 -0.427517 -0.357844 -0.466853 -0.282893 0.392736 -3.002895 -1.293110 0.134945 0.000000 0.000000 0.000000 0.000000 0.000000 0.000000 0.085751 0.003504 -26.565673 -0.000000 0.000000 0.000000 -0.000000 0.000000 0.000000 0.000000 0.000000 0.000000 0.085751 0.003504 -26.565673 -0.000000 0.000000 0.000000 -0.000000 0.000000 0.000000 0.000000 0.000000 0.000000
-8.798697 64.800252 301.878273 -0.135583 -0.078250 27.258406 0.156365 0.007463 -27.258509 -0.000000 0.000000 0.000000 0.963937 0.934437 -0.169736 0.000000 0.000000 0.000000 -0.806529 -2.439521 0.031905 0.808620 2.438829 -0.066290 -1.245940 -2.248363 4.107283 1.404732 2.152757 -4.158128 0.000000 0.000000 0.000000 0.000000 0.000000 0.000000 1.150641 -0.325860 -0.299879 0.655301 -0.548078 -0.300712 -0.682686 -0.287373 0.532147 -5.694137 -2.668713 0.408271 0.000000 0.000000 0.000000 0.000000 0.000000 0.000000 0.156365 0.007463 -27.258509 -0.000000 0.000000 0.000000 0.854489 0.906166 0.340178 0.000000 0.000000 0.000000 0.156365 0.007463 -27.258509 -0.000000 0.000000 0.000000 -0.000000 0.000000 0.000000 0.000000 0.000000 0.000000
-8.813417 64.869138 301.921180 -0.181221 -0.110240 27.808781 0.211721 0.012965 -27.808979 -0.000000 0.000000 0.000000 1.265518 1.290726 -0.209037 0.000000 0.000000 0.000000 -1.077794 -3.433336 0.055244 1.083044 3.431685 -0.119992 -1.515890 -2.945420 5.605497 1.798356 2.782059 -5.688145 0.000000 0.000000 0.000000 0.000000 0.000000 0.000000 1.578572 -0.519535 -0.418309 0.979117 -0.819501 -0.308336 -0.640415 0.073293 0.375234 -8.067932 -4.222815 0.831687 0.000000 0.000000 0.000000 0.000000 0.000000 0.000000 0.689046 0.896343 -27.892487 -0.008643 -1.004044 0.079644 1.361289 1.433505 0.460861 0.000000 0.000000 0.000000 0.211721 0.012965 -27.808979 -0.000000 0.000000 0.000000 -0.000000 0.000000 0.000000 0.000000 0.000000 0.000000
-8.828236 64.918042 301.955956 -0.211939 -0.137403 28.219886 0.251719 0.020854 -28.220186 -0.814367 -0.240621 -0.065897 2.261535 1.818749 -0.159807 0.000000 0.000000 0.000000 -0.435949 -4.017689 0.156034 1.265106 4.254835 -0.181776 -1.605337 -3.393525 6.815658 1.999597 3.177391 -6.918680 0.000000 0.000000 0.000000 0.000000 0.000000 0.000000 2.721231 -0.488334 -0.461120 1.303417 -1.087799 -0.222617 -0.336364 0.881356 -0.122445 -10.118673 -6.053558 1.409210 0.000000 0.000000 0.000000 0.000000 0.000000 0.000000 0.836259 1.089314 -28.323081 0.732650 -0.807339 0.014624 1.177164 1.602662 0.654026 0.000000 0.000000 0.000000 0.251719 0.020854 -28.220186 -0.000000 0.000000 0.000000 -0.000000 0.000000 0.000000 0.000000 0.000000 0.000000
